<svg xmlns="http://www.w3.org/2000/svg" width="433px" height="408px" viewBox="0 0 433 408">
  <path id="india" fill="#e7b850" stroke="black" stroke-width="2" d="M 110.97,0.00 C 118.07,5.64 120.30,12.02 125.01,15.30 130.07,18.82 137.24,18.32 142.97,20.04 151.87,22.72 157.37,29.97 171.97,30.00 184.84,30.02 187.00,28.24 197.97,36.09 197.97,36.09 202.74,39.60 202.74,39.60 208.43,44.92 203.09,48.86 204.28,55.00 205.00,58.70 208.16,61.65 208.43,64.96 208.70,68.25 205.78,70.33 204.42,73.04 202.87,76.12 202.89,79.63 202.99,83.00 203.23,91.23 206.77,90.74 211.16,102.00 212.38,105.13 213.23,108.93 216.19,110.86 220.69,113.81 226.98,112.56 231.97,112.74 245.41,113.24 239.67,113.22 250.97,116.41 254.01,117.27 255.89,117.16 258.97,118.68 258.97,118.68 277.97,132.45 277.97,132.45 281.79,134.74 296.33,138.98 300.97,139.71 312.36,141.48 319.43,142.13 330.97,142.00 343.95,141.84 345.27,136.61 351.97,136.35 351.97,136.35 363.97,136.99 363.97,136.99 363.97,136.99 375.97,136.17 375.97,136.17 375.97,136.17 388.97,138.69 388.97,138.69 388.97,138.69 395.97,138.69 395.97,138.69 395.97,138.69 411.97,140.10 411.97,140.10 411.97,140.10 419.97,140.10 419.97,140.10 425.52,141.02 427.93,142.58 432.97,144.00 431.07,146.89 428.81,149.65 427.77,153.00 427.77,153.00 426.38,161.96 426.38,161.96 425.01,165.63 421.56,166.87 421.40,171.01 421.26,174.69 424.33,177.58 423.88,185.00 423.64,188.84 420.78,198.91 418.46,201.82 415.97,204.93 411.65,206.49 410.70,210.04 410.70,210.04 411.97,221.00 411.97,221.00 412.13,231.25 410.01,240.73 398.97,244.00 398.97,244.00 388.75,228.09 388.75,228.09 387.44,226.20 385.21,223.18 382.81,222.71 377.97,221.75 376.61,228.82 374.12,231.58 371.97,233.98 369.00,234.59 365.97,235.25 355.44,237.29 351.36,231.72 343.97,235.25 340.66,236.92 336.65,241.33 333.97,244.00 333.97,244.00 321.30,255.87 321.30,255.87 321.30,255.87 315.34,263.37 315.34,263.37 312.77,265.87 308.45,267.06 305.24,270.33 302.03,273.60 300.72,278.85 298.29,281.61 296.03,284.17 293.03,284.79 288.97,288.21 286.81,290.03 280.57,295.94 278.91,298.09 278.91,298.09 275.17,303.73 275.17,303.73 272.01,307.52 267.15,307.52 264.40,313.04 261.31,319.21 260.94,333.91 260.97,341.00 260.97,341.00 262.08,357.00 262.08,357.00 262.62,361.04 264.03,362.92 262.08,366.98 258.78,373.50 248.19,376.96 244.18,386.00 241.65,391.70 240.69,408.01 229.97,405.45 221.43,403.41 215.85,384.45 211.88,376.96 208.93,371.39 206.13,367.20 204.07,361.00 204.07,361.00 202.17,351.00 202.17,351.00 201.40,348.55 196.83,341.32 195.17,339.18 191.88,334.93 186.97,333.59 183.35,329.81 180.03,326.34 178.01,321.09 175.30,317.00 168.17,306.25 165.29,306.25 162.46,293.00 161.90,290.35 161.26,288.87 161.07,286.00 161.07,286.00 161.97,268.00 161.97,268.00 161.97,265.47 162.08,262.41 161.32,260.00 157.79,248.74 147.02,250.70 139.78,242.82 139.78,242.82 127.19,228.83 127.19,228.83 125.05,225.42 124.99,222.17 121.98,218.44 118.65,214.31 113.83,211.69 110.14,207.91 110.14,207.91 96.51,191.43 96.51,191.43 96.51,191.43 80.97,181.69 80.97,181.69 78.35,180.21 76.82,180.11 73.97,179.56 63.02,177.42 63.61,180.39 55.97,180.79 55.97,180.79 40.97,178.17 40.97,178.17 36.28,177.71 27.99,177.95 25.54,172.61 24.44,170.21 26.96,154.63 26.97,150.00 26.98,146.04 27.27,138.53 26.36,135.00 26.36,135.00 16.91,112.00 16.91,112.00 15.19,106.01 16.48,98.16 13.75,92.00 13.75,92.00 0.85,72.00 0.85,72.00 0.00,68.14 3.47,66.50 4.83,61.00 4.83,61.00 6.97,35.17 6.97,35.17 11.43,35.59 16.65,37.04 20.97,35.17 29.99,31.80 37.35,16.62 48.97,12.75 53.16,11.35 62.53,9.66 66.97,9.32 76.14,8.63 83.17,15.69 91.88,8.58 93.55,7.22 94.67,5.68 95.97,4.00 103.77,5.73 105.11,6.52 110.97,0.00 Z"></path>
</svg>